<svg xmlns="http://www.w3.org/2000/svg" version="1.1" xmlns:xlink="http://www.w3.org/1999/xlink" xmlns:svgjs="http://svgjs.dev/svgjs" width="2000" height="1999" viewBox="0 0 2000 1999"><g transform="matrix(1,0,0,1,-0.431486880466764,-0.4312711370263287)"><svg viewBox="0 0 343 343" data-background-color="#000000" preserveAspectRatio="xMidYMid meet" height="1999" width="2000" xmlns="http://www.w3.org/2000/svg" xmlns:xlink="http://www.w3.org/1999/xlink"><g id="tight-bounds" transform="matrix(1,0,0,1,0.0740000000000407,0.07400000000001228)"><svg viewBox="0 0 342.85155851775386 342.85155851775386" height="342.85155851775386" width="342.85155851775386"><g><svg></svg></g><g><svg viewBox="0 0 342.85155851775386 342.85155851775386" height="342.85155851775386" width="342.85155851775386"><g><path d="M0 171.426c0-94.676 76.75-171.426 171.426-171.426 94.676 0 171.426 76.75 171.426 171.426 0 94.676-76.75 171.426-171.426 171.426-94.676 0-171.426-76.75-171.426-171.426zM171.426 330.058c87.61 0 158.632-71.022 158.632-158.632 0-87.61-71.022-158.632-158.632-158.632-87.61 0-158.632 71.022-158.632 158.632 0 87.61 71.022 158.632 158.632 158.632z" data-fill-palette-color="tertiary" fill="#449c54" stroke="transparent"></path><ellipse rx="164.56874808852186" ry="164.56874808852186" cx="171.42577925887693" cy="171.42577925887693" fill="#449c54" stroke="transparent" stroke-width="0" fill-opacity="1" data-fill-palette-color="tertiary"></ellipse></g><g transform="matrix(1,0,0,1,64.84655864529837,100.49060262533624)"><svg viewBox="0 0 213.1584412271571 141.87035326708138" height="141.87035326708138" width="213.1584412271571"><g><svg viewBox="0 0 213.1584412271571 141.87035326708138" height="141.87035326708138" width="213.1584412271571"><g><svg viewBox="0 0 213.1584412271571 141.87035326708138" height="141.87035326708138" width="213.1584412271571"><g><svg viewBox="0 0 213.1584412271571 141.87035326708138" height="141.87035326708138" width="213.1584412271571"><g id="textblocktransform"><svg viewBox="0 0 213.1584412271571 141.87035326708138" height="141.87035326708138" width="213.1584412271571" id="textblock"><g><svg viewBox="0 0 213.1584412271571 141.87035326708138" height="141.87035326708138" width="213.1584412271571"><g transform="matrix(1,0,0,1,0,0)"><svg width="213.1584412271571" viewBox="4 -39.7 60.400000000000006 40.2" height="141.87035326708138" data-palette-color="#000000"><path d="M27.6-0.6L18.15-16.45 14.3-16.45Q13.45-16.45 12.98-17.13 12.5-17.8 12.5-18.95L12.5-18.95Q12.5-21.5 14.6-21.5L14.6-21.5 20.45-21.5Q22.3-21.5 23.05-22.55 23.8-23.6 23.8-24.85L23.8-24.85 23.8-31.3Q23.8-32.55 23.05-33.6 22.3-34.65 20.45-34.65L20.45-34.65 9.9-34.65 9.9-2.05Q9.9 0.35 6.95 0.35L6.95 0.35Q4 0.35 4-2.05L4-2.05 4-36.7Q4-38.5 4.93-39.1 5.85-39.7 7.15-39.7L7.15-39.7 21.7-39.7Q23-39.7 24.4-39.15 25.8-38.6 27.1-37.75L27.1-37.75 27.05-37.75Q28.35-36.8 29.05-35.27 29.75-33.75 29.75-31.75L29.75-31.75 29.75-24.45Q29.75-20.4 27.05-18.4L27.05-18.4Q26.5-18 25.88-17.65 25.25-17.3 24.6-16.95L24.6-16.95 32.6-3.75Q32.75-3.5 32.9-3.1 33.05-2.7 33.05-2.45L33.05-2.45Q33.05-1.25 31.35-0.15L31.35-0.15 31.35-0.2Q30.2 0.5 29.4 0.5L29.4 0.5Q28.25 0.5 27.55-0.65L27.55-0.65 27.6-0.6ZM58.45-8.4L58.45-14.75Q58.45-15.9 57.6-16.98 56.75-18.05 54.6-18.2L54.6-18.2Q53.2-16.5 51.2-16.5L51.2-16.5Q49.5-16.5 48.3-17.7 47.1-18.9 47.1-20.65L47.1-20.65Q47.1-22.4 48.3-23.6 49.5-24.8 51.2-24.8L51.2-24.8Q52.1-24.8 52.97-24.3 53.85-23.8 54.55-23.1L54.55-23.1Q55.65-23.15 56.25-23.45 56.85-23.75 57.12-24.18 57.4-24.6 57.45-25.15 57.5-25.7 57.5-26.25L57.5-26.25 57.5-31.3Q57.5-32.55 56.72-33.6 55.95-34.65 54.1-34.65L54.1-34.65 43.65-34.65 43.6-1.65Q43.6-0.65 42.67-0.13 41.75 0.4 40.65 0.4L40.65 0.4Q37.7 0.4 37.7-2L37.7-2 37.7-36.7Q37.7-38.5 38.62-39.1 39.55-39.7 40.85-39.7L40.85-39.7 55.35-39.7Q56.65-39.7 58.12-39.2 59.6-38.7 60.9-37.85L60.9-37.85 60.85-37.85Q62.15-36.9 62.77-35.35 63.4-33.8 63.4-31.75L63.4-31.75 63.4-26.1Q63.4-24.1 62.55-22.83 61.7-21.55 60.75-20.8L60.75-20.8Q61.4-20.4 62-19.98 62.6-19.55 63-19.05L63-19.05Q63.65-18.35 64.02-17.4 64.4-16.45 64.4-15.15L64.4-15.15 64.4-8Q64.4-3.9 61.2-1.95L61.2-1.95Q59.6-0.95 58.17-0.45 56.75 0.05 55.35 0.05L55.35 0.05 47.95 0.05Q47.1 0.05 46.62-0.65 46.15-1.35 46.15-2.5L46.15-2.5Q46.15-5 48.25-5L48.25-5 55.1-5Q56.95-5 57.7-6.05 58.45-7.1 58.45-8.4L58.45-8.4Z" opacity="1" transform="matrix(1,0,0,1,0,0)" fill="#000000" class="wordmark-text-0" data-fill-palette-color="quaternary" id="text-0"></path></svg></g></svg></g></svg></g></svg></g><g></g></svg></g></svg></g></svg></g></svg></g><defs></defs></svg><rect width="342.85155851775386" height="342.85155851775386" fill="none" stroke="none" visibility="hidden"></rect></g></svg></g></svg>